<?xml version="1.0" encoding="UTF-8" standalone="no"?>
<!-- Created with Inkscape (http://www.inkscape.org/) -->

<svg
   xmlns:dc="http://purl.org/dc/elements/1.1/"
   xmlns:cc="http://creativecommons.org/ns#"
   xmlns:rdf="http://www.w3.org/1999/02/22-rdf-syntax-ns#"
   xmlns:svg="http://www.w3.org/2000/svg"
   xmlns="http://www.w3.org/2000/svg"
   xmlns:xlink="http://www.w3.org/1999/xlink"
   xmlns:sodipodi="http://sodipodi.sourceforge.net/DTD/sodipodi-0.dtd"
   xmlns:inkscape="http://www.inkscape.org/namespaces/inkscape"
   width="488.35355"
   height="193.2576"
   id="svg3117"
   version="1.1"
   inkscape:version="0.48.3.1 r9886"
   sodipodi:docname="logal_new_final.svg">
  <defs
     id="defs3119">
    <pattern
       inkscape:collect="always"
       xlink:href="#pattern5957"
       id="pattern5969"
       patternTransform="translate(259.21214,443.50565)" />
    <clipPath
       clipPathUnits="userSpaceOnUse"
       id="clipPath3912">
      <path
         sodipodi:type="arc"
         style="fill:#ffffff;fill-opacity:1;fill-rule:nonzero;stroke:#000000;stroke-opacity:1"
         id="path3914"
         sodipodi:cx="244.80234"
         sodipodi:cy="388.819"
         sodipodi:rx="58.382137"
         sodipodi:ry="58.382137"
         d="m 303.18447,388.819 a 58.382137,58.382137 0 1 1 -116.76427,0 58.382137,58.382137 0 1 1 116.76427,0 z"
         transform="matrix(0.94529609,0,0,0.94529609,51.239378,62.338735)" />
    </clipPath>
    <clipPath
       clipPathUnits="userSpaceOnUse"
       id="clipPath3864">
      <rect
         style="fill:#77ffff;fill-opacity:1;fill-rule:nonzero;stroke:#000000;stroke-opacity:1"
         id="rect3866"
         width="172"
         height="105"
         x="-24"
         y="-144.74316" />
    </clipPath>
    <pattern
       patternUnits="userSpaceOnUse"
       width="52.643538"
       height="53.091751"
       patternTransform="translate(222.44259,216.23148)"
       id="pattern5957">
      <g
         id="g5774"
         transform="translate(-222.44259,-216.23148)">
        <g
           id="g3825"
           transform="translate(-35.024248,-20.48588)"
           style="fill:#e9e7e7;fill-opacity:1"
           inkscape:transform-center-y="-91.195212">
          <path
             transform="matrix(0.47694382,0,0,0.48100457,148.9804,56.48523)"
             clip-path="url(#clipPath3912)"
             inkscape:connector-curvature="0"
             id="path3107"
             d="m 267.21474,503.68178 c -26.39492,-6.01137 -47.12814,-25.645 -55.51376,-52.56957 -3.37892,-10.84908 -3.37949,-31.14743 -10e-4,-42 10.769,-34.59449 40.60589,-55.59449 76.31253,-53.7108 32.98245,4.45148 56.86001,22.90332 66.56597,51.2108 2.4426,7.30129 2.67635,9.35374 2.67635,23.5 0,14.14626 -0.23375,16.19871 -2.67635,23.5 -7.75213,23.17224 -25.94625,41.09655 -49.22753,48.49749 -8.97073,2.85173 -28.90851,3.67362 -38.13604,1.57208 z m 22.79628,-6.56957 c 1.34187,0 3.0701,0.5625 3.84051,1.25 0.77041,0.6875 0.25921,-0.3004 -1.136,-2.19533 -3.4094,-4.63054 -4.18729,-4.69853 -6.17065,-0.53938 -2.01353,4.22241 -2.14842,5.667 -0.30205,3.23471 0.73064,-0.9625 2.42633,-1.75 3.76819,-1.75 z m -1.52407,-2.49426 c 0.31537,-0.82184 0.97625,-1.24528 1.46861,-0.94098 1.41193,0.87262 1.04399,2.43524 -0.5734,2.43524 -0.89208,0 -1.24351,-0.5866 -0.89521,-1.49426 z m -14.70356,2.91306 c -1.064,-1.28205 -1.07271,-1.96482 -0.046,-3.60881 1.03602,-1.65893 1.02508,-1.9473 -0.0602,-1.58593 -2.49269,0.83001 -2.26047,6.77594 0.26463,6.77594 0.80497,0 0.75706,-0.47808 -0.15843,-1.5812 z m 6.56739,0.5812 c 0.33992,-0.55 0.16803,-1 -0.38197,-1 -0.55,0 -1.27811,0.45 -1.61803,1 -0.33992,0.55 -0.16803,1 0.38197,1 0.55,0 1.27811,-0.45 1.61803,-1 z m 19.86163,-2.5 c -0.33536,-0.87394 -0.009,-1.51269 0.78138,-1.53041 0.89064,-0.02 0.74834,-0.38475 -0.41404,-1.06146 -0.97407,-0.56708 -1.51001,-1.45339 -1.19099,-1.96959 0.31903,-0.5162 0.051,-0.93854 -0.59559,-0.93854 -0.73119,0 -0.94769,0.85063 -0.57268,2.25 0.33164,1.2375 0.60913,2.8125 0.61664,3.5 0.008,0.6875 0.44953,1.25 0.98227,1.25 0.53273,0 0.70959,-0.675 0.39301,-1.5 z m -39.62301,-4 c 0.5908,-1.925 0.7418,-3.5 0.33556,-3.5 -0.40624,0 -1.222,1.575 -1.8128,3.5 -0.5908,1.925 -0.7418,3.5 -0.33556,3.5 0.40624,0 1.222,-1.575 1.8128,-3.5 z m 46.10438,2.47195 c -1.02419,-0.59785 -1.45702,-1.73193 -1.13337,-2.96959 0.43897,-1.67861 0.0601,-1.98034 -2.343,-1.86618 -2.35845,0.11204 -2.46776,0.21301 -0.61663,0.56955 2.20348,0.42441 3.22225,2.29427 1.25,2.29427 -1.69602,0 -1.10322,1.82638 0.75,2.31067 3.02506,0.79054 3.80996,0.66351 2.093,-0.33872 z m -26.343,-0.97195 c -0.33992,-0.55 -1.06803,-1 -1.61803,-1 -0.55,0 -0.72189,0.45 -0.38197,1 0.33992,0.55 1.06803,1 1.61803,1 0.55,0 0.72189,-0.45 0.38197,-1 z m -27.5,-2 c 0,-0.55 0.7875,-1.03553 1.75,-1.07895 0.9625,-0.0434 1.21278,-0.29749 0.55618,-0.56461 -0.65661,-0.26711 -0.94596,-1.13158 -0.64301,-1.92105 1.01105,-2.63475 -0.5907,-1.47622 -2.16317,1.56461 -0.88345,1.7084 -1.10977,3 -0.52568,3 0.56412,0 1.02568,-0.45 1.02568,-1 z m 60.65499,-0.82874 c -0.91025,-1.00581 -1.65499,-2.33998 -1.65499,-2.96482 0,-1.55303 3.82993,-3.48568 5.57814,-2.81483 1.98671,0.76237 1.77658,4.3024 -0.32814,5.52829 -0.9625,0.56061 -1.25724,1.03297 -0.65499,1.04969 0.60226,0.0167 1.93334,-0.89593 2.95796,-2.02813 3.56063,-3.93444 -1.39178,-7.58755 -6.10214,-4.5012 -2.64346,1.73206 -3.17515,4.43542 -1.25083,6.35974 1.94291,1.94291 3.26519,1.37151 1.45499,-0.62874 z m -64.05945,-6.98245 c 1.72617,0.85308 1.71722,0.78782 -0.0955,-0.69708 -1.1,-0.90106 -2.9,-2.12898 -4,-2.72872 -1.79956,-0.98117 -1.8609,-0.92183 -0.61199,0.59203 1.19333,1.44649 1.15827,1.93634 -0.25,3.49246 -0.9009,0.99549 -1.62379,2.22455 -1.60641,2.73124 0.0174,0.50669 1.07287,-0.26053 2.34554,-1.70493 1.81679,-2.06196 2.72311,-2.42398 4.2184,-1.685 z m 46.96042,1.79688 c 9.43747,-2.4137 19.57492,-8.19206 26.16656,-14.91498 4.65561,-4.74833 10.56105,-13.54732 11.7926,-17.57071 0.342,-1.11731 -0.0962,-0.77828 -0.99294,0.7682 l -1.60512,2.7682 -49.84482,-0.2682 -49.84483,-0.2682 2.1363,3.92711 c 4.08381,7.50721 14.65616,17.04275 23.76407,21.43358 13.28625,6.40517 24.71574,7.63205 38.42818,4.125 z m 33.03905,-3.23569 c 1.9028,-2.24742 1.90261,-2.24799 -0.1721,-0.50149 -1.99843,1.68228 -2.16584,1.65403 -4.42061,-0.74606 -1.28894,-1.37201 -2.56852,-2.26956 -2.84352,-1.99456 -0.5584,0.5584 3.80796,5.49211 4.86055,5.49211 0.36888,0 1.52794,-1.0125 2.57568,-2.25 z m -92.59501,-2.25 c 0,-0.825 0.675,-1.5 1.5,-1.5 2.25519,0 1.8033,-3.36644 -0.77732,-5.79081 l -2.27733,-2.13943 -2.97267,2.4484 -2.97268,2.4484 2.5,-0.23328 c 2.14808,-0.20044 2.54411,0.22421 2.81336,3.01672 0.30752,3.18946 2.18664,4.69334 2.18664,1.75 z m -1.50555,-4.50613 c -2.0995,-2.31993 -1.20602,-3.93163 1.30351,-2.35132 1.85968,1.17109 2.90562,4.35745 1.43035,4.35745 -0.50508,0 -1.73532,-0.90276 -2.73386,-2.00613 z m 97.96647,-2.44849 c -1.62851,-1.30136 -3.18592,-2.14111 -3.46092,-1.86611 -0.275,0.275 0.83241,1.56475 2.46092,2.86611 1.62851,1.30136 3.18592,2.14111 3.46092,1.86611 0.275,-0.275 -0.83241,-1.56475 -2.46092,-2.86611 z m 4.57176,-5.52073 -2.43745,-1.83857 4.20239,-1.13158 c 4.97679,-1.34011 5.27007,-2.45102 1.20238,-4.5545 -1.65,-0.85325 -3,-1.12013 -3,-0.59307 0,0.52706 0.90653,1.24602 2.01452,1.59768 2.77439,0.88055 1.60416,2.2887 -2.5496,3.06795 -1.90571,0.35751 -3.46492,1.01241 -3.46492,1.45532 0,1.07166 5.36104,4.94441 5.98323,4.32222 0.26779,-0.26779 -0.60996,-1.31424 -1.95055,-2.32545 z m -107.64252,-0.2814 c 1.2929,-2.04967 -0.18103,-6.59096 -2.64016,-8.13455 -1.96809,-1.23537 -4.80614,0.0157 -5.58658,2.46274 -0.32737,1.02644 0.10777,0.92917 1.54586,-0.34555 2.44675,-2.16879 5.09672,-1.34703 5.89349,1.82758 1.14922,4.57885 -2.32436,6.10981 -5.04607,2.22402 -0.85618,-1.22237 -1.5567,-1.67237 -1.5567,-1 0,1.72215 3.89842,5.42304 5.24106,4.97549 0.61383,-0.20461 1.58092,-1.10899 2.1491,-2.00973 z m 115.78015,-12.49325 c -0.49503,-0.9625 -0.7016,-2.425 -0.45905,-3.25 0.33938,-1.15436 0.2303,-1.20106 -0.4734,-0.20267 -0.7353,1.04323 -1.16401,0.99658 -2.18876,-0.23816 -1.06079,-1.27818 -0.96221,-1.63491 0.58828,-2.12869 4.03775,-1.2859 6.5984,-2.52804 6.14539,-2.98105 -0.42421,-0.4242 -7.68785,2.19868 -8.67703,3.13326 -0.56403,0.53289 4.23722,7.40228 5.17944,7.41048 0.43185,0.004 0.38016,-0.78067 -0.11487,-1.74317 z m -123.03512,-1.80293 3.36481,-1.55292 -3.25,0.52792 c -3.80114,0.61746 -3.92343,0.19475 -1.2244,-4.23219 1.10997,-1.82056 1.8031,-3.65803 1.54029,-4.08327 -0.65295,-1.0565 -6.43635,-0.12523 -7.23362,1.16478 -0.42233,0.68335 0.44048,0.82406 2.51224,0.40971 3.71729,-0.74346 3.72472,-0.7172 1.19833,4.23492 -1.07643,2.10998 -1.67643,4.11706 -1.33333,4.46016 0.80764,0.80763 0.54156,0.86349 4.42568,-0.92911 z m 114.46975,-9.15097 c 4.16654,-17.70745 -0.80375,-37.2661 -12.9266,-50.86763 -18.13443,-20.34638 -47.5922,-24.82631 -70.88226,-10.77976 -19.21069,11.58623 -29.88619,33.97011 -26.75627,56.10129 0.64172,4.5375 1.36998,8.25 1.61835,8.25 0.24837,0 3.12689,-1.81677 6.39671,-4.03726 5.5808,-3.78985 5.94513,-4.28011 5.94513,-8 0,-2.82356 0.42346,-3.96274 1.47306,-3.96274 0.81019,0 4.86019,-2.09029 9,-4.64509 7.46497,-4.60685 7.52694,-4.68017 7.52694,-8.90638 0,-3.76896 0.23107,-4.20086 2,-3.73828 1.92137,0.50245 2,0.0307 2,-12 0,-11.74151 0.11672,-12.49249 1.87043,-12.03388 2.39321,0.62584 9.89305,-4.53768 10.31372,-7.10083 0.35933,-2.18938 5.32183,-5.42936 8.31585,-5.42936 3.00139,0 7.95942,3.24366 8.29895,5.42936 0.37401,2.40769 7.54592,7.62534 9.92889,7.22339 1.6041,-0.27058 1.79883,0.86821 2.0534,12.00854 0.26795,11.72604 0.37425,12.27796 2.25,11.68262 1.76327,-0.55965 1.96876,-0.1455 1.96876,3.96794 0,4.53966 0.0723,4.63917 6.25,8.6007 3.4375,2.20434 7.4875,4.27415 9,4.59958 2.45589,0.52841 2.75192,1.03285 2.76797,4.71669 0.0168,3.8482 0.3584,4.34766 5.09131,7.44311 4.54233,2.97081 5.00295,3.5986 4.40075,5.99795 -0.36993,1.47391 -0.35676,2.36401 0.0292,1.97799 0.38602,-0.38602 1.31557,-3.31009 2.06566,-6.49795 z M 220.27935,422.54078 c 0.86429,-0.86428 1.57143,-2.07529 1.57143,-2.69113 0,-0.61583 -0.60993,-0.28557 -1.35539,0.73391 -1.92562,2.63344 -4.43139,1.2758 -4.91694,-2.66401 l -0.4076,-3.30734 -0.16003,3.55 c -0.14724,3.26601 1.19184,5.95 2.96853,5.95 0.40072,0 1.43572,-0.70714 2.3,-1.57143 z m 125.1756,-2.15774 c -0.3323,-0.33229 -0.56864,0.25834 -0.52522,1.3125 0.048,1.16495 0.28494,1.4019 0.60416,0.60417 0.28887,-0.72187 0.25335,-1.58438 -0.0789,-1.91667 z m 3.05811,-2.52083 c -0.27741,-0.6875 -0.50439,-0.125 -0.50439,1.25 0,1.375 0.22698,1.9375 0.50439,1.25 0.27741,-0.6875 0.27741,-1.8125 0,-2.5 z m 3,-2 c -0.27741,-0.6875 -0.50439,-0.125 -0.50439,1.25 0,1.375 0.22698,1.9375 0.50439,1.25 0.27741,-0.6875 0.27741,-1.8125 0,-2.5 z m -128.66228,-0.75 c 0,-1.65 -0.37206,-3 -0.82681,-3 -0.45474,0 -0.62867,1.35 -0.3865,3 0.24217,1.65 0.61423,3 0.82681,3 0.21257,0 0.3865,-1.35 0.3865,-3 z m 121.60417,0.27083 c -0.3323,-0.33229 -0.56864,0.25834 -0.52522,1.3125 0.048,1.16495 0.28494,1.4019 0.60416,0.60417 0.28887,-0.72187 0.25335,-1.58438 -0.0789,-1.91667 z m -70.60417,-11.27083 0,-11 -3,0 -3,0 0,11 0,11 3,0 3,0 z m 8,0 0,-11 -2.5,0 c -2.4897,0 -2.5,0.0388 -2.5,9.41821 0,5.18002 -0.27314,10.13002 -0.60699,11 -0.47323,1.23322 0.0777,1.58179 2.5,1.58179 l 3.10699,0 z m 9,0 0,-11 -3,0 -3,0 0,11 0,11 3,0 3,0 z m 8,0 0,-11 -2.5,0 c -2.4897,0 -2.5,0.0388 -2.5,9.41821 0,5.18002 -0.27314,10.13002 -0.60699,11 -0.47323,1.23322 0.0777,1.58179 2.5,1.58179 l 3.10699,0 z m 51.10152,9.13002 c 0.68248,1.07735 0.87113,0.99618 0.88317,-0.38002 0.0196,-2.24004 -3.86936,-2.34451 -6.54356,-0.17578 -1.89255,1.53482 -1.88482,1.56219 0.30887,1.09362 1.30524,-0.2788 2.26277,0.005 2.28041,0.67578 0.0167,0.63601 0.5193,0.31489 1.11683,-0.7136 0.87722,-1.50989 1.25354,-1.60617 1.95428,-0.5 z m -131.51082,-1.87266 c -0.6935,-0.69349 -2.5907,0.71555 -2.5907,1.9241 0,0.6631 0.57378,0.58723 1.52417,-0.20152 0.83829,-0.69572 1.31823,-1.47088 1.06653,-1.72258 z m 6.4093,-4.13604 c 0,-1.14326 -5.87522,-3.57943 -6.68338,-2.77127 -0.34059,0.34059 0.91134,1.28354 2.78206,2.09546 4.12272,1.7893 3.90132,1.75095 3.90132,0.67581 z m 116.45792,-2.43295 c -0.4535,-1.80689 -0.021,-2.56643 1.98095,-3.47856 1.40862,-0.64181 2.56113,-1.64241 2.56113,-2.22355 0,-0.70921 -0.73981,-0.67263 -2.25,0.11124 -4.31423,2.23931 -4.72155,2.87084 -3.53345,5.47844 1.39637,3.06469 1.99597,3.119 1.24137,0.11243 z m -114.64543,-7.97433 c -2.11014,-1.73839 -2.47543,-2.59 -1.70031,-3.96404 0.54296,-0.9625 0.75421,-1.75 0.46945,-1.75 -0.28477,0 -1.16365,1.23274 -1.95308,2.73942 -1.36528,2.60572 -1.30583,2.79698 1.21806,3.91878 4.1417,1.84088 4.90279,1.47534 1.96588,-0.94416 z m 108.737,-2.63396 c -0.3127,-0.50596 0.62944,-1.86227 2.09364,-3.01401 1.46421,-1.15174 2.35486,-2.40141 1.97923,-2.77704 -1.0241,-1.0241 -5.97623,4.32939 -5.18663,5.60698 0.37527,0.6072 0.9073,1.10399 1.1823,1.10399 0.275,0 0.24416,-0.41397 -0.0685,-0.91992 z m -99.54949,-6.02106 c 0,-0.51754 -0.49533,-1.24712 -1.10074,-1.62128 -0.65184,-0.40286 -0.8481,-1.94352 -0.48125,-3.77777 0.38595,-1.92975 0.26735,-2.73226 -0.31458,-2.12872 -0.51375,0.53281 -1.08468,2.0753 -1.26875,3.42776 -0.22265,1.6359 -1.1715,2.67625 -2.83468,3.10803 -2.31171,0.60015 -2.23639,0.68533 1,1.13096 1.925,0.26506 3.8375,0.55394 4.25,0.64196 0.4125,0.088 0.75,-0.2634 0.75,-0.78094 z m 97.9963,-1.55508 c 1.2897,-1.37283 2.12284,-2.71813 1.85141,-2.98957 -0.27143,-0.27143 -1.7824,0.8518 -3.3577,2.49606 -1.57531,1.64426 -2.40844,2.98957 -1.85142,2.98957 0.55703,0 2.068,-1.12323 3.35771,-2.49606 z m -1.9963,-5.5883 c 1.27981,-0.72934 1.25267,-0.85929 -0.1849,-0.88523 -0.9267,-0.0167 -2.8392,0.40845 -4.25,0.94484 -2.49208,0.94749 -2.56914,0.85497 -2.70701,-3.25 -0.13894,-4.46972 -0.0387,-4.85745 -0.79483,-0.22525 -0.35911,2.2 -0.47741,4.36385 -0.26289,4.80855 0.42674,0.88464 5.80683,-0.0293 8.19963,-1.39291 z m -85.77749,-3.47234 c -1.22238,-0.85619 -2.22251,-1.94905 -2.22251,-2.42857 0,-1.6868 3.16855,-4.01473 5.46444,-4.01473 3.25779,0 3.88893,2.58029 1.25143,5.11625 l -2.21587,2.13057 2.18228,-1.12235 c 2.33868,-1.20279 3.84411,-4.46373 2.82325,-6.11552 -0.34296,-0.55492 -1.84688,-1.00895 -3.34204,-1.00895 -7.25693,0 -10.31136,8.5393 -3.19098,8.92105 0.93021,0.0499 0.654,-0.49435 -0.75,-1.47775 z m 71.77749,0.0824 c -272.095803,436.12527 -136.0479,218.06264 0,0 z m -60.43026,-9.72957 c -1.84368,-2.63222 -2.05979,-1.11824 -0.41235,2.88879 0.89624,2.17991 1.25043,2.42444 1.56974,1.08371 0.22679,-0.95226 -0.29403,-2.73989 -1.15739,-3.9725 z m 42.43026,0.70389 c 0,-0.825 0.40787,-1.5 0.90638,-1.5 0.49851,0 0.66325,-0.92974 0.36609,-2.06609 -0.64359,-2.46109 -1.76674,-1.48404 -2.66241,2.31609 -0.383,1.62497 -0.23127,2.75 0.37089,2.75 0.56048,0 1.01905,-0.675 1.01905,-1.5 z m -37.50708,-0.48855 c 0.35034,-0.56686 -0.0511,-0.7345 -0.94098,-0.39301 -1.73242,0.66479 -2.04939,1.38156 -0.61096,1.38156 0.51754,0 1.21592,-0.44485 1.55194,-0.98855 z m 13.40176,-2.76145 c 1.7382,-3.35567 2.024,-3.53969 2.71793,-1.75 0.89733,2.31426 3.28242,4.9383 3.91428,4.30644 0.23741,-0.23741 -0.85248,-1.96983 -2.42197,-3.84983 l -2.85362,-3.41818 -2.12191,3.48079 c -1.16705,1.91443 -2.1236,3.81828 -2.12565,4.23078 -0.008,1.655 1.04684,0.56011 2.89094,-3 z m 18.60532,1.78743 c 0,-0.80442 -1.4625,-1.88201 -3.25,-2.39466 -3.68883,-1.05794 -4.33848,-2.64277 -1.08333,-2.64277 1.19166,0 1.88762,-0.27904 1.54657,-0.6201 -0.86561,-0.8656 -5.71324,0.4594 -5.71324,1.5616 0,0.49687 1.575,1.42319 3.5,2.0585 1.925,0.63531 3.5,1.57021 3.5,2.07755 0,1.34111 -4.39149,1.13096 -5.8,-0.27755 -0.83383,-0.83383 -1.2,-0.85926 -1.2,-0.0833 0,1.52155 1.91425,2.20986 5.5,1.97763 1.87732,-0.12159 3,-0.74163 3,-1.65687 z m 0.5,-4.03743 c 0,-0.55 -0.47656,-1 -1.05902,-1 -0.58246,0 -0.7809,0.45 -0.44098,1 0.33992,0.55 0.81648,1 1.05902,1 0.24254,0 0.44098,-0.45 0.44098,-1 z"
             style="fill:#e9e7e7;fill-opacity:1"
             sodipodi:nodetypes="cscccsssccssssssssssssssssssssscscsscssssssssssssssssssssccsssssssscsssscsssscsccsssccccsssssssssssscccssssssssssssscsssssssssssssssssssssssscsscsssssssscsssssssssssssssssssssssscccsssscsssccsccsssssssssssssccscccccccccccccsssscccccccccccccssssccsssscsssssssssssssssssssssscssssccssscssscsscsssscsccsssssscssscsccssssssssssscsssssscscsssscsssssssssssss" />
        </g>
      </g>
    </pattern>
    <pattern
       patternTransform="translate(266.63312,248.80222)"
       id="pattern6164"
       xlink:href="#pattern6145"
       inkscape:collect="always" />
    <pattern
       inkscape:collect="always"
       xlink:href="#pattern6142"
       id="pattern6145"
       patternTransform="translate(186.63051,65.88261)" />
    <pattern
       inkscape:collect="always"
       xlink:href="#pattern6137"
       id="pattern6142"
       patternTransform="translate(206.63051,55.88261)" />
    <pattern
       patternUnits="userSpaceOnUse"
       width="232.37681"
       height="232.37681"
       patternTransform="translate(152.63051,291.88261)"
       id="pattern6137">
      <path
         transform="matrix(2.1053046,0,0,2.1053046,-478.87609,-788.85639)"
         clip-path="url(#clipPath3912-9)"
         inkscape:connector-curvature="0"
         id="path3107-6"
         d="m 267.21474,503.68178 c -26.39492,-6.01137 -47.12814,-25.645 -55.51376,-52.56957 -3.37892,-10.84908 -3.37949,-31.14743 -10e-4,-42 10.769,-34.59449 40.60589,-55.59449 76.31253,-53.7108 19.39599,1.02323 33.53745,7.44278 47.82613,21.7108 9.60536,9.59147 14.83219,17.81948 18.73984,29.5 2.4426,7.30129 2.67635,9.35374 2.67635,23.5 0,14.14626 -0.23375,16.19871 -2.67635,23.5 -7.75213,23.17224 -25.94625,41.09655 -49.22753,48.49749 -8.97073,2.85173 -28.90851,3.67362 -38.13604,1.57208 z m 22.79628,-6.56957 c 1.34187,0 3.0701,0.5625 3.84051,1.25 0.77041,0.6875 0.25921,-0.3004 -1.136,-2.19533 -3.4094,-4.63054 -4.18729,-4.69853 -6.17065,-0.53938 -2.01353,4.22241 -2.14842,5.667 -0.30205,3.23471 0.73064,-0.9625 2.42633,-1.75 3.76819,-1.75 z m -1.52407,-2.49426 c 0.31537,-0.82184 0.97625,-1.24528 1.46861,-0.94098 1.41193,0.87262 1.04399,2.43524 -0.5734,2.43524 -0.89208,0 -1.24351,-0.5866 -0.89521,-1.49426 z m -14.70356,2.91306 c -1.064,-1.28205 -1.07271,-1.96482 -0.046,-3.60881 1.03602,-1.65893 1.02508,-1.9473 -0.0602,-1.58593 -2.49269,0.83001 -2.26047,6.77594 0.26463,6.77594 0.80497,0 0.75706,-0.47808 -0.15845,-1.5812 z m 6.56739,0.5812 c 0.33992,-0.55 0.16803,-1 -0.38197,-1 -0.55,0 -1.27811,0.45 -1.61803,1 -0.33992,0.55 -0.16803,1 0.38197,1 0.55,0 1.27811,-0.45 1.61803,-1 z m 19.86163,-2.5 c -0.33536,-0.87394 -0.009,-1.51269 0.78138,-1.53041 0.89064,-0.02 0.74834,-0.38475 -0.41404,-1.06146 -0.97407,-0.56708 -1.51001,-1.45339 -1.19099,-1.96959 0.31903,-0.5162 0.051,-0.93854 -0.59559,-0.93854 -0.73119,0 -0.94769,0.85063 -0.57268,2.25 0.33164,1.2375 0.60913,2.8125 0.61664,3.5 0.008,0.6875 0.44953,1.25 0.98227,1.25 0.53273,0 0.70959,-0.675 0.39301,-1.5 z m -39.62301,-4 c 0.5908,-1.925 0.7418,-3.5 0.33556,-3.5 -0.40624,0 -1.222,1.575 -1.8128,3.5 -0.5908,1.925 -0.7418,3.5 -0.33556,3.5 0.40624,0 1.222,-1.575 1.8128,-3.5 z m 46.10438,2.47195 c -1.02419,-0.59785 -1.45702,-1.73193 -1.13337,-2.96959 0.43897,-1.67861 0.0601,-1.98034 -2.343,-1.86618 -2.35845,0.11204 -2.46776,0.21301 -0.61663,0.56955 2.20348,0.42441 3.22225,2.29427 1.25,2.29427 -1.69602,0 -1.10322,1.82638 0.75,2.31067 3.02506,0.79054 3.80996,0.66351 2.093,-0.33872 z m -26.343,-0.97195 c -0.33992,-0.55 -1.06803,-1 -1.61803,-1 -0.55,0 -0.72189,0.45 -0.38197,1 0.33992,0.55 1.06803,1 1.61803,1 0.55,0 0.72189,-0.45 0.38197,-1 z m -27.5,-2 c 0,-0.55 0.7875,-1.03553 1.75,-1.07895 0.9625,-0.0434 1.21278,-0.29749 0.55618,-0.56461 -0.65661,-0.26711 -0.94596,-1.13158 -0.64301,-1.92105 1.01105,-2.63475 -0.5907,-1.47622 -2.16317,1.56461 -0.88345,1.7084 -1.10977,3 -0.52568,3 0.56412,0 1.02568,-0.45 1.02568,-1 z m 60.65499,-0.82874 c -0.91025,-1.00581 -1.65499,-2.33998 -1.65499,-2.96482 0,-1.55303 3.82993,-3.48568 5.57814,-2.81483 1.98671,0.76237 1.77658,4.3024 -0.32814,5.52829 -0.9625,0.56061 -1.25724,1.03297 -0.65499,1.04969 0.60226,0.0167 1.93334,-0.89593 2.95796,-2.02813 3.56063,-3.93444 -1.39178,-7.58755 -6.10214,-4.5012 -2.64346,1.73206 -3.17515,4.43542 -1.25083,6.35974 1.94291,1.94291 3.26519,1.37151 1.45499,-0.62874 z m -64.05945,-6.98245 c 1.72617,0.85308 1.71722,0.78782 -0.0955,-0.69708 -1.1,-0.90106 -2.9,-2.12898 -4,-2.72872 -1.79956,-0.98117 -1.8609,-0.92183 -0.61199,0.59203 1.19333,1.44649 1.15827,1.93634 -0.25,3.49246 -0.9009,0.99549 -1.62379,2.22455 -1.60641,2.73124 0.0174,0.50669 1.07287,-0.26053 2.34554,-1.70493 1.81679,-2.06196 2.72311,-2.42398 4.2184,-1.685 z m 46.96042,1.79688 c 9.43747,-2.4137 19.57492,-8.19206 26.16656,-14.91498 4.65561,-4.74833 10.56105,-13.54732 11.7926,-17.57071 0.342,-1.11731 -0.0962,-0.77828 -0.99294,0.7682 l -1.60512,2.7682 -49.84482,-0.2682 -49.84483,-0.2682 2.1363,3.92711 c 4.08381,7.50721 14.65616,17.04275 23.76407,21.43358 13.28625,6.40517 24.71574,7.63205 38.42818,4.125 z m 33.03905,-3.23569 c 1.9028,-2.24742 1.90261,-2.24799 -0.1721,-0.50149 -1.99843,1.68228 -2.16584,1.65403 -4.42061,-0.74606 -1.28894,-1.37201 -2.56852,-2.26956 -2.84352,-1.99456 -0.5584,0.5584 3.80796,5.49211 4.86055,5.49211 0.36888,0 1.52794,-1.0125 2.57568,-2.25 z m -92.59501,-2.25 c 0,-0.825 0.675,-1.5 1.5,-1.5 2.25519,0 1.8033,-3.36644 -0.77732,-5.79081 l -2.27733,-2.13943 -2.97267,2.4484 -2.97268,2.4484 2.5,-0.23328 c 2.14808,-0.20044 2.54411,0.22421 2.81336,3.01672 0.30752,3.18946 2.18664,4.69334 2.18664,1.75 z m -1.50555,-4.50613 c -2.0995,-2.31993 -1.20602,-3.93163 1.30351,-2.35132 1.85968,1.17109 2.90562,4.35745 1.43035,4.35745 -0.50508,0 -1.73532,-0.90276 -2.73386,-2.00613 z m 97.96647,-2.44849 c -1.62851,-1.30136 -3.18592,-2.14111 -3.46092,-1.86611 -0.275,0.275 0.83241,1.56475 2.46092,2.86611 1.62851,1.30136 3.18592,2.14111 3.46092,1.86611 0.275,-0.275 -0.83241,-1.56475 -2.46092,-2.86611 z m 4.57176,-5.52073 -2.43745,-1.83857 4.20239,-1.13158 c 4.97679,-1.34011 5.27007,-2.45102 1.20238,-4.5545 -1.65,-0.85325 -3,-1.12013 -3,-0.59307 0,0.52706 0.90653,1.24602 2.01452,1.59768 2.77439,0.88055 1.60416,2.2887 -2.5496,3.06795 -1.90571,0.35751 -3.46492,1.01241 -3.46492,1.45532 0,1.07166 5.36104,4.94441 5.98323,4.32222 0.26779,-0.26779 -0.60996,-1.31424 -1.95055,-2.32545 z m -107.64252,-0.2814 c 1.2929,-2.04967 -0.18103,-6.59096 -2.64016,-8.13455 -1.96809,-1.23537 -4.80614,0.0157 -5.58658,2.46274 -0.32737,1.02644 0.10777,0.92917 1.54586,-0.34555 2.44675,-2.16879 5.09672,-1.34703 5.89349,1.82758 1.14922,4.57885 -2.32436,6.10981 -5.04607,2.22402 -0.85618,-1.22237 -1.5567,-1.67237 -1.5567,-1 0,1.72215 3.89842,5.42304 5.24106,4.97549 0.61383,-0.20461 1.58092,-1.10899 2.1491,-2.00973 z m 115.78015,-12.49325 c -0.49503,-0.9625 -0.7016,-2.425 -0.45905,-3.25 0.33938,-1.15436 0.2303,-1.20106 -0.4734,-0.20267 -0.7353,1.04323 -1.16401,0.99658 -2.18876,-0.23816 -1.06079,-1.27818 -0.96221,-1.63491 0.58828,-2.12869 4.03775,-1.2859 6.5984,-2.52804 6.14539,-2.98105 -0.42421,-0.4242 -7.68785,2.19868 -8.67703,3.13326 -0.56403,0.53289 4.23722,7.40228 5.17944,7.41048 0.43185,0.004 0.38016,-0.78067 -0.11487,-1.74317 z m -123.03512,-1.80293 3.36481,-1.55292 -3.25,0.52792 c -3.80114,0.61746 -3.92343,0.19475 -1.2244,-4.23219 1.10997,-1.82056 1.8031,-3.65803 1.54029,-4.08327 -0.65295,-1.0565 -6.43635,-0.12523 -7.23362,1.16478 -0.42233,0.68335 0.44048,0.82406 2.51224,0.40971 3.71729,-0.74346 3.72472,-0.7172 1.19833,4.23492 -1.07643,2.10998 -1.67643,4.11706 -1.33333,4.46016 0.80764,0.80763 0.54156,0.86349 4.42568,-0.92911 z m 114.46975,-9.15097 c 4.16654,-17.70745 -0.80375,-37.2661 -12.9266,-50.86763 -18.13443,-20.34638 -47.5922,-24.82631 -70.88226,-10.77976 -19.21069,11.58623 -29.88619,33.97011 -26.75627,56.10129 0.64172,4.5375 1.36998,8.25 1.61835,8.25 0.24837,0 3.12689,-1.81677 6.39671,-4.03726 5.5808,-3.78985 5.94513,-4.28011 5.94513,-8 0,-2.82356 0.42346,-3.96274 1.47306,-3.96274 0.81019,0 4.86019,-2.09029 9,-4.64509 7.46497,-4.60685 7.52694,-4.68017 7.52694,-8.90638 0,-3.76896 0.23107,-4.20086 2,-3.73828 1.92137,0.50245 2,0.0307 2,-12 0,-11.74151 0.11672,-12.49249 1.87043,-12.03388 2.39321,0.62584 9.89305,-4.53768 10.31372,-7.10083 0.35933,-2.18938 5.32183,-5.42936 8.31585,-5.42936 3.00139,0 7.95942,3.24366 8.29895,5.42936 0.37401,2.40769 7.54592,7.62534 9.92889,7.22339 1.6041,-0.27058 1.79883,0.86821 2.0534,12.00854 0.26795,11.72604 0.37425,12.27796 2.25,11.68262 1.76327,-0.55965 1.96876,-0.1455 1.96876,3.96794 0,4.53966 0.0723,4.63917 6.25,8.6007 3.4375,2.20434 7.4875,4.27415 9,4.59958 2.45589,0.52841 2.75192,1.03285 2.76797,4.71669 0.0168,3.8482 0.3584,4.34766 5.09131,7.44311 4.54233,2.97081 5.00295,3.5986 4.40075,5.99795 -0.36993,1.47391 -0.35676,2.36401 0.0292,1.97799 0.38602,-0.38602 1.31557,-3.31009 2.06566,-6.49795 z M 220.27935,422.54078 c 0.86429,-0.86428 1.57143,-2.07529 1.57143,-2.69113 0,-0.61583 -0.60993,-0.28557 -1.35539,0.73391 -1.92562,2.63344 -4.43139,1.2758 -4.91694,-2.66401 l -0.4076,-3.30734 -0.16003,3.55 c -0.14724,3.26601 1.19184,5.95 2.96853,5.95 0.40072,0 1.43572,-0.70714 2.3,-1.57143 z m 125.1756,-2.15774 c -0.3323,-0.33229 -0.56864,0.25834 -0.52522,1.3125 0.048,1.16495 0.28494,1.4019 0.60416,0.60417 0.28887,-0.72187 0.25335,-1.58438 -0.0789,-1.91667 z m 3.05811,-2.52083 c -0.27741,-0.6875 -0.50439,-0.125 -0.50439,1.25 0,1.375 0.22698,1.9375 0.50439,1.25 0.27741,-0.6875 0.27741,-1.8125 0,-2.5 z m 3,-2 c -0.27741,-0.6875 -0.50439,-0.125 -0.50439,1.25 0,1.375 0.22698,1.9375 0.50439,1.25 0.27741,-0.6875 0.27741,-1.8125 0,-2.5 z m -128.66228,-0.75 c 0,-1.65 -0.37206,-3 -0.82681,-3 -0.45474,0 -0.62867,1.35 -0.3865,3 0.24217,1.65 0.61423,3 0.82681,3 0.21257,0 0.3865,-1.35 0.3865,-3 z m 121.60417,0.27083 c -0.3323,-0.33229 -0.56864,0.25834 -0.52522,1.3125 0.048,1.16495 0.28494,1.4019 0.60416,0.60417 0.28887,-0.72187 0.25335,-1.58438 -0.0789,-1.91667 z m -70.60417,-11.27083 0,-11 -3,0 -3,0 0,11 0,11 3,0 3,0 0,-11 z m 8,0 0,-11 -2.5,0 c -2.4897,0 -2.5,0.0388 -2.5,9.41821 0,5.18002 -0.27314,10.13002 -0.60699,11 -0.47323,1.23322 0.0777,1.58179 2.5,1.58179 l 3.10699,0 0,-11 z m 9,0 0,-11 -3,0 -3,0 0,11 0,11 3,0 3,0 0,-11 z m 8,0 0,-11 -2.5,0 c -2.4897,0 -2.5,0.0388 -2.5,9.41821 0,5.18002 -0.27314,10.13002 -0.60699,11 -0.47323,1.23322 0.0777,1.58179 2.5,1.58179 l 3.10699,0 0,-11 z m 51.10152,9.13002 c 0.68248,1.07735 0.87113,0.99618 0.88317,-0.38002 0.0196,-2.24004 -3.86936,-2.34451 -6.54356,-0.17578 -1.89255,1.53482 -1.88482,1.56219 0.30887,1.09362 1.30524,-0.2788 2.26277,0.005 2.28041,0.67578 0.0167,0.63601 0.5193,0.31489 1.11683,-0.7136 0.87722,-1.50989 1.25354,-1.60617 1.95428,-0.5 z m -131.51082,-1.87266 c -0.6935,-0.69349 -2.5907,0.71555 -2.5907,1.9241 0,0.6631 0.57378,0.58723 1.52417,-0.20152 0.83829,-0.69572 1.31823,-1.47088 1.06653,-1.72258 z m 6.4093,-4.13604 c 0,-1.14326 -5.87522,-3.57943 -6.68338,-2.77127 -0.34059,0.34059 0.91134,1.28354 2.78206,2.09546 4.12272,1.7893 3.90132,1.75095 3.90132,0.67581 z m 116.45792,-2.43295 c -0.4535,-1.80689 -0.021,-2.56643 1.98095,-3.47856 1.40862,-0.64181 2.56113,-1.64241 2.56113,-2.22355 0,-0.70921 -0.73981,-0.67263 -2.25,0.11124 -4.31423,2.23931 -4.72155,2.87084 -3.53345,5.47844 1.39637,3.06469 1.99597,3.119 1.24137,0.11243 z m -114.64543,-7.97433 c -2.11014,-1.73839 -2.47543,-2.59 -1.70031,-3.96404 0.54296,-0.9625 0.75421,-1.75 0.46945,-1.75 -0.28477,0 -1.16365,1.23274 -1.95308,2.73942 -1.36528,2.60572 -1.30583,2.79698 1.21806,3.91878 4.1417,1.84088 4.90279,1.47534 1.96588,-0.94416 z m 108.737,-2.63396 c -0.3127,-0.50596 0.62944,-1.86227 2.09364,-3.01401 1.46421,-1.15174 2.35486,-2.40141 1.97923,-2.77704 -1.0241,-1.0241 -5.97623,4.32939 -5.18663,5.60698 0.37527,0.6072 0.9073,1.10399 1.1823,1.10399 0.275,0 0.24416,-0.41397 -0.0685,-0.91992 z m -99.54949,-6.02106 c 0,-0.51754 -0.49533,-1.24712 -1.10074,-1.62128 -0.65184,-0.40286 -0.8481,-1.94352 -0.48125,-3.77777 0.38595,-1.92975 0.26735,-2.73226 -0.31458,-2.12872 -0.51375,0.53281 -1.08468,2.0753 -1.26875,3.42776 -0.22265,1.6359 -1.1715,2.67625 -2.83468,3.10803 -2.31171,0.60015 -2.23639,0.68533 1,1.13096 1.925,0.26506 3.8375,0.55394 4.25,0.64196 0.4125,0.088 0.75,-0.2634 0.75,-0.78094 z m 97.9963,-1.55508 c 1.2897,-1.37283 2.12284,-2.71813 1.85141,-2.98957 -0.27143,-0.27143 -1.7824,0.8518 -3.3577,2.49606 -1.57531,1.64426 -2.40844,2.98957 -1.85142,2.98957 0.55703,0 2.068,-1.12323 3.35771,-2.49606 z m -1.9963,-5.5883 c 1.27981,-0.72934 1.25267,-0.85929 -0.1849,-0.88523 -0.9267,-0.0167 -2.8392,0.40845 -4.25,0.94484 -2.49208,0.94749 -2.56914,0.85497 -2.70701,-3.25 l -0.1419,-4.22525 -0.65293,4 c -0.35911,2.2 -0.47741,4.36385 -0.26289,4.80855 0.42674,0.88464 5.80683,-0.0293 8.19963,-1.39291 z m -85.77749,-3.47234 c -1.22238,-0.85619 -2.22251,-1.94905 -2.22251,-2.42857 0,-1.6868 3.16855,-4.01473 5.46444,-4.01473 3.25779,0 3.88893,2.58029 1.25143,5.11625 l -2.21587,2.13057 2.18228,-1.12235 c 2.33868,-1.20279 3.84411,-4.46373 2.82325,-6.11552 -0.34296,-0.55492 -1.84688,-1.00895 -3.34204,-1.00895 -7.25693,0 -10.31136,8.5393 -3.19098,8.92105 0.93021,0.0499 0.654,-0.49435 -0.75,-1.47775 z m 71.77749,0.0824 c 0,-0.26088 -1.34743,-1.1711 -2.99428,-2.02272 -2.70915,-1.40096 -2.8758,-1.7605 -1.75,-3.77568 0.68435,-1.22501 1.31496,-2.37296 1.40135,-2.55102 0.0864,-0.17805 1.54889,0.39601 3.25,1.27568 1.70111,0.87968 3.09293,1.37201 3.09293,1.09406 0,-0.27794 -1.72946,-1.38765 -3.84323,-2.46602 l -3.84324,-1.96068 -1.63461,3.42783 -1.63462,3.42782 3.72785,1.96833 c 4.2148,2.22544 4.22785,2.23032 4.22785,1.5824 z m -60.43026,-9.72957 c -1.84368,-2.63222 -2.05979,-1.11824 -0.41235,2.88879 0.89624,2.17991 1.25043,2.42444 1.56974,1.08371 0.22679,-0.95226 -0.29403,-2.73989 -1.15739,-3.9725 z m 50.97823,-0.29611 c 0.66142,-2.87785 0.62488,-2.91857 -0.89744,-1 -0.87281,1.1 -1.60123,2.8775 -1.61873,3.95 -0.0449,2.75349 1.66647,0.74704 2.51617,-2.95 z m -8.54797,1 c 0,-0.825 0.40787,-1.5 0.90638,-1.5 0.49851,0 0.66325,-0.92974 0.36609,-2.06609 -0.64359,-2.46109 -1.76674,-1.48404 -2.66241,2.31609 -0.383,1.62497 -0.23127,2.75 0.37089,2.75 0.56048,0 1.01905,-0.675 1.01905,-1.5 z m -37.50708,-0.48855 c 0.35034,-0.56686 -0.0511,-0.7345 -0.94098,-0.39301 -1.73242,0.66479 -2.04939,1.38156 -0.61096,1.38156 0.51754,0 1.21592,-0.44485 1.55194,-0.98855 z m 13.40176,-2.76145 c 1.7382,-3.35567 2.024,-3.53969 2.71793,-1.75 0.89733,2.31426 3.28242,4.9383 3.91428,4.30644 0.23741,-0.23741 -0.85248,-1.96983 -2.42197,-3.84983 l -2.85362,-3.41818 -2.12191,3.48079 c -1.16705,1.91443 -2.1236,3.81828 -2.12565,4.23078 -0.008,1.655 1.04684,0.56011 2.89094,-3 z m 18.60532,1.78743 c 0,-0.80442 -1.4625,-1.88201 -3.25,-2.39466 -3.68883,-1.05794 -4.33848,-2.64277 -1.08333,-2.64277 1.19166,0 1.88762,-0.27904 1.54657,-0.6201 -0.86561,-0.8656 -5.71324,0.4594 -5.71324,1.5616 0,0.49687 1.575,1.42319 3.5,2.0585 1.925,0.63531 3.5,1.57021 3.5,2.07755 0,1.34111 -4.39149,1.13096 -5.8,-0.27755 -0.83383,-0.83383 -1.2,-0.85926 -1.2,-0.0833 0,1.52155 1.91425,2.20986 5.5,1.97763 1.87732,-0.12159 3,-0.74163 3,-1.65687 z m 0.5,-4.03743 c 0,-0.55 -0.47656,-1 -1.05902,-1 -0.58246,0 -0.7809,0.45 -0.44098,1 0.33992,0.55 0.81648,1 1.05902,1 0.24254,0 0.44098,-0.45 0.44098,-1 z"
         style="fill:#264870;fill-opacity:1" />
    </pattern>
    <clipPath
       clipPathUnits="userSpaceOnUse"
       id="clipPath3912-9">
      <path
         sodipodi:type="arc"
         style="fill:#ffffff;fill-opacity:1;fill-rule:nonzero;stroke:#000000;stroke-opacity:1"
         id="path3914-3"
         sodipodi:cx="244.80234"
         sodipodi:cy="388.819"
         sodipodi:rx="58.382137"
         sodipodi:ry="58.382137"
         d="m 303.18447,388.819 a 58.382137,58.382137 0 1 1 -116.76427,0 58.382137,58.382137 0 1 1 116.76427,0 z"
         transform="matrix(0.94529609,0,0,0.94529609,51.239378,62.338735)" />
    </clipPath>
    <clipPath
       clipPathUnits="userSpaceOnUse"
       id="clipPath7640">
      <path
         sodipodi:type="arc"
         style="fill:#000000;fill-opacity:1;stroke:#000000;stroke-opacity:1"
         id="path7642"
         sodipodi:cx="191.76695"
         sodipodi:cy="181.86017"
         sodipodi:rx="109.68221"
         sodipodi:ry="109.68221"
         d="m 301.44917,181.86017 a 109.68221,109.68221 0 1 1 -219.36443,0 109.68221,109.68221 0 1 1 219.36443,0 z"
         transform="matrix(1.1284467,0,0,1.1284467,-51.521664,-36.682845)" />
    </clipPath>
  </defs>
  <sodipodi:namedview
     id="base"
     pagecolor="#ffffff"
     bordercolor="#666666"
     borderopacity="1.0"
     inkscape:pageopacity="0.0"
     inkscape:pageshadow="2"
     inkscape:zoom="1"
     inkscape:cx="290.04385"
     inkscape:cy="197.84611"
     inkscape:document-units="px"
     inkscape:current-layer="layer1"
     showgrid="false"
     fit-margin-top="0"
     fit-margin-left="0"
     fit-margin-right="0"
     fit-margin-bottom="0"
     inkscape:window-width="1224"
     inkscape:window-height="776"
     inkscape:window-x="56"
     inkscape:window-y="24"
     inkscape:window-maximized="1"
     showguides="true"
     inkscape:guide-bbox="true" />
  <metadata
     id="metadata3122">
    <rdf:RDF>
      <cc:Work
         rdf:about="">
        <dc:format>image/svg+xml</dc:format>
        <dc:type
           rdf:resource="http://purl.org/dc/dcmitype/StillImage" />
        <dc:title></dc:title>
      </cc:Work>
    </rdf:RDF>
  </metadata>
  <g
     inkscape:label="Layer 1"
     inkscape:groupmode="layer"
     id="layer1"
     transform="translate(-130.81481,-431.73301)">
    <g
       id="g7685">
      <path
         id="path3049"
         transform="translate(130.82152,431.73378)"
         d="m 380.78125,0 c -1.63991,-0.02477546 -3.27182,0.54912813 -4.5,1.90625 C 374.20474,4.20076 324.7578,110.39852 324,114.1875 c -0.41403,2.07016 0.0626,3.37509 2,5.3125 3.06775,3.06775 7.62726,3.37841 10.0625,0.6875 3.07389,-3.3966 51.73802,-109.40375 51.875,-113 C 388.09508,3.0503931 384.38904,0.05450602 380.78125,0 z m -274.125,1.0625 0,58 0,58 97.5,0 97.5,0 0,-58 0,-58 -97.5,0 -97.5,0 z m 98,12 43,0 43,0 0,7.5 0,7.5 -43,0 -43,0 0,-7.5 0,-7.5 z M 154.9375,15 c 0.79136,0 1.24066,0.3312 1.5,1.0625 0.0853,0.24057 0.34835,0.34375 0.8125,0.34375 0.90097,0 1.34375,0.5076 1.34375,1.5625 0,0.5693 0.0656,0.84375 0.25,0.84375 0.1491,0 0.96629,0.48659 1.8125,1.09375 1.45793,1.04607 2.37751,1.35725 2.65625,0.90625 0.41577,-0.67273 0.5,0.23262 0.5,5.3125 l 0,5.53125 0.4375,0 c 0.24838,-0.004 0.62298,-0.14517 0.84375,-0.3125 0.39385,-0.2985 0.43279,-0.27748 0.53125,1.75 l 0.0937,2.0625 3.46875,2.09375 c 3.00711,1.80806 3.54537,2.08086 3.875,1.875 0.36558,-0.22831 0.375,-0.17397 0.375,1.75 0,1.10485 0.0917,2.03125 0.1875,2.03125 0.30326,0 4.46368,2.64873 4.5625,2.90625 0.0977,0.25469 -0.59564,2.30091 -1.34375,3.96875 l -0.40625,0.9375 -21.875,0 -21.875,0 -0.28125,-0.4375 c -0.50267,-0.77117 -1.74399,-4.25239 -1.5625,-4.375 0.0946,-0.0639 1.25323,-0.76582 2.59375,-1.59375 l 2.4375,-1.53125 0.0313,-1.9375 c 0.004,-1.07633 0.037,-1.96875 0.0937,-1.96875 0.0567,0 0.29336,0.12094 0.5,0.25 0.31863,0.19901 0.65586,0.04926 2.25,-0.9375 1.03378,-0.63987 2.58363,-1.58345 3.4375,-2.09375 l 1.53125,-0.9375 0,-1.90625 c 9.1e-4,-1.05792 0.0553,-1.9928 0.125,-2.0625 0.0697,-0.0697 0.33166,-0.005 0.5625,0.15625 0.23086,0.16169 0.62359,0.3125 0.875,0.3125 l 0.46875,0 0,-5.53125 c 0,-5.07988 0.0843,-5.98523 0.5,-5.3125 0.31613,0.5115 1.34729,0.17303 2.78125,-0.90625 0.80667,-0.60716 1.59789,-1.09375 1.78125,-1.09375 0.25954,0 0.34375,-0.19606 0.34375,-0.875 0,-1.03159 0.38109,-1.46653 1.375,-1.5625 0.41924,-0.0404 0.77048,-0.22728 0.90625,-0.46875 C 153.85358,15.16631 154.15225,15 154.9375,15 z m -77.46875,7.25 c -0.372912,-6.82e-4 -0.736302,0.02847 -1.125,0.09375 C 73.99565,22.73809 1.87598,61.49902 0,63.375 c -0.31554,0.31554 10.40047,6.29029 51.625,28.84375 12.89801,7.05636 24.49177,12.84375 25.78125,12.84375 3.05919,0 7.25,-4.24655 7.25,-7.34375 0,-1.33907 -0.7875,-3.37068 -1.75,-4.53125 -0.9625,-1.16057 -12.59544,-8.08714 -25.875,-15.375 C 43.75169,70.52464 32.881,64.1125 32.875,63.5625 32.8691,63.0125 43.71455,56.60567 57,49.3125 70.28546,42.01933 81.94375,35.09276 82.90625,33.9375 86.704934,29.378062 83.062432,22.260224 77.46875,22.25 z m 333.75,0.03125 c -3.8484,-0.135753 -7.5625,3.515428 -7.5625,7.6875 0,3.99714 1.77052,5.2165 29,20.0625 12.375,6.74707 22.8907,12.61653 23.34375,13.03125 0.45305,0.41471 -10.12195,6.73242 -23.5,14.03125 -13.37805,7.29884 -25.35625,14.16476 -26.59375,15.28125 -3.01039,2.716 -2.90852,7.09149 0.21875,10.21875 1.35,1.35 3.48089,2.46875 4.75,2.46875 1.26911,0 9.96911,-4.17675 19.3125,-9.28125 41.66043,-22.76001 58.42078,-32.11047 58.15625,-32.375 C 486.4903,61.55281 414.33023,22.77078 412,22.375 c -0.25678,-0.04361 -0.52469,-0.0847 -0.78125,-0.09375 z M 147.9375,22.625 l 0,4.90625 0,4.9375 1.3125,0 1.3125,0 0,-4.9375 0,-4.90625 -1.3125,0 -1.3125,0 z m 3.8125,0 0,4.9375 0,4.90625 1.25,-0.0625 1.28125,-0.0625 0.0313,-4.84375 0.0625,-4.875 -1.3125,0 -1.3125,0 z m 3.625,0 0,4.78125 c 0,2.63101 0.0514,4.83266 0.125,4.90625 0.0736,0.0736 0.66854,0.15625 1.3125,0.15625 l 1.15625,0 0,-4.9375 0,-4.90625 -1.28125,0 -1.3125,0 z m 3.8125,0 0,4.78125 c 0,2.63101 0.0514,4.83266 0.125,4.90625 0.0736,0.0736 0.66855,0.15625 1.3125,0.15625 l 1.15625,0 0,-4.9375 0,-4.90625 -1.28125,0 -1.3125,0 z m 45.46875,16.4375 43,0 43,0 0,7 0,7 -43,0 -43,0 0,-7 0,-7 z m -86,26 86,0 86,0 0,7 0,7 -86,0 -86,0 0,-7 0,-7 z m -1,26 86,0 86,0 0,7 0,7 -86,0 -86,0 0,-7 0,-7 z"
         style="fill:#000000"
         inkscape:connector-curvature="0" />
      <text
         sodipodi:linespacing="125%"
         id="text4047-0"
         y="624.31061"
         x="148.2178"
         style="font-size:40px;font-style:normal;font-variant:normal;font-weight:normal;font-stretch:normal;line-height:125%;letter-spacing:0px;word-spacing:0px;fill:#000000;fill-opacity:1;stroke:none;font-family:Sawasdee;-inkscape-font-specification:Sawasdee"
         xml:space="preserve"><tspan
           style="font-size:40px;font-style:normal;font-variant:normal;font-weight:bold;font-stretch:normal;font-family:COUTURE;-inkscape-font-specification:COUTURE"
           y="624.31061"
           x="148.2178"
           id="tspan4049-3"
           sodipodi:role="line">Code for Asheville</tspan></text>
    </g>
  </g>
</svg>
